HIERARCHY
ROOT SpineBase
{
  OFFSET 0.000000 0.000000 0.000000
  CHANNELS 6 Xposition Yposition Zposition Zrotation Xrotation Yrotation
  JOINT SpineMid
  {
    OFFSET 0.000000 29.396107 0.000000
    CHANNELS 3 Zrotation Xrotation Yrotation
    JOINT SpineShoulder
    {
      OFFSET -0.088346 21.827612 -0.733970
      CHANNELS 3 Zrotation Xrotation Yrotation
      JOINT Neck
      {
        OFFSET -0.067668 7.220462 -0.540535
        CHANNELS 3 Zrotation Xrotation Yrotation
        JOINT Head
        {
          OFFSET 5.116334 12.740697 0.552901
          CHANNELS 3 Zrotation Xrotation Yrotation
          End Site
          {
            OFFSET 0 0 0
          }
        }
      }
      JOINT ShoulderLeft
      {
        OFFSET -13.619542 -3.593142 -8.012286
        CHANNELS 3 Zrotation Xrotation Yrotation
        JOINT ElbowLeft
        {
          OFFSET -6.226227 -24.235721 -0.826572
          CHANNELS 3 Zrotation Xrotation Yrotation
          JOINT WristLeft
          {
            OFFSET -0.246501 -19.494351 -3.861928
            CHANNELS 3 Zrotation Xrotation Yrotation
            JOINT HandLeft
            {
              OFFSET 0.873089 -6.155125 0.036956
              CHANNELS 3 Zrotation Xrotation Yrotation
              JOINT HandTipLeft
              {
                OFFSET -0.477858 -7.080993 -0.461500
                CHANNELS 3 Zrotation Xrotation Yrotation
                End Site
                {
                  OFFSET 0 0 0
                }
              }
              JOINT ThumbLeft
              {
                OFFSET 2.849964 0.152542 -0.716532
                CHANNELS 3 Zrotation Xrotation Yrotation
                End Site
                {
                  OFFSET 0 0 0
                }
              }
            }
          }
        }
      }
      JOINT ShoulderRight
      {
        OFFSET 15.203591 -5.693788 3.744963
        CHANNELS 3 Zrotation Xrotation Yrotation
        JOINT ElbowRight
        {
          OFFSET 2.119411 -24.642343 3.501286
          CHANNELS 3 Zrotation Xrotation Yrotation
          JOINT WristRight
          {
            OFFSET 0.496244 -20.787161 -2.916382
            CHANNELS 3 Zrotation Xrotation Yrotation
            JOINT HandRight
            {
              OFFSET -0.707829 -6.242031 -0.551341
              CHANNELS 3 Zrotation Xrotation Yrotation
              JOINT HandTipRight
              {
                OFFSET -0.586101 -6.371376 0.819639
                CHANNELS 3 Zrotation Xrotation Yrotation
                End Site
                {
                  OFFSET 0 0 0
                }
              }
              JOINT ThumbRight
              {
                OFFSET -2.892739 0.638261 -1.951265
                CHANNELS 3 Zrotation Xrotation Yrotation
                End Site
                {
                  OFFSET 0 0 0
                }
              }
            }
          }
        }
      }
    }
  }
  JOINT HipLeft
  {
    OFFSET -6.712385 1.329425 -5.345787
    CHANNELS 3 Zrotation Xrotation Yrotation
    JOINT KneeLeft
    {
      OFFSET -7.787722 -27.372615 5.840425
      CHANNELS 3 Zrotation Xrotation Yrotation
      JOINT AnkleLeft
      {
        OFFSET -2.441331 -34.372863 9.339859
        CHANNELS 3 Zrotation Xrotation Yrotation
        JOINT FootLeft
        {
          OFFSET 3.016511 -2.947597 -14.969854
          CHANNELS 3 Zrotation Xrotation Yrotation
          End Site
          {
            OFFSET 0 0 0
          }
        }
      }
    }
  }
  JOINT HipRight
  {
    OFFSET 5.910349 0.185003 -1.001367
    CHANNELS 3 Zrotation Xrotation Yrotation
    JOINT KneeRight
    {
      OFFSET -7.273556 -26.906810 7.366180
      CHANNELS 3 Zrotation Xrotation Yrotation
      JOINT AnkleRight
      {
        OFFSET -8.161068 -32.420592 8.691253
        CHANNELS 3 Zrotation Xrotation Yrotation
        JOINT FootRight
        {
          OFFSET 4.475333 -3.138215 -13.249147
          CHANNELS 3 Zrotation Xrotation Yrotation
          End Site
          {
            OFFSET 0 0 0
          }
        }
      }
    }
  }
}
MOTION
Frames: 9
Frame Time: 0.033333
39.121643 69.166728 316.296062 -2.542979 1.774123 -10.598491 0.172906 -0.083949 10.564224 -0.146153 -0.043401 -0.104251 9.413533 2.168341 -1.672436 0.000000 0.000000 0.000000 33.653146 47.959026 -29.342194 99.981653 15.095655 37.575864 24.806641 7.473043 24.992695 12.679959 8.759683 -70.171592 0.000000 0.000000 0.000000 0.000000 0.000000 0.000000 57.223001 51.839783 -14.744312 -150.188683 73.057387 40.197040 -14.532033 21.963278 -18.161041 -28.062914 17.223017 147.668011 0.000000 0.000000 0.000000 0.000000 0.000000 0.000000 7.604063 1.070560 11.380054 -7.922934 -0.593690 -1.618504 -20.581757 -47.735921 -41.143640 0.000000 0.000000 0.000000 8.977549 -2.773982 13.190852 -6.129499 0.304008 -1.611908 -9.724746 -31.889182 25.364765 0.000000 0.000000 0.000000
39.135747 69.108295 316.226261 -2.589605 1.769770 -10.745715 0.136469 -0.063910 10.709489 -0.176352 -0.048388 -0.110341 9.734744 2.147898 -1.669530 0.000000 0.000000 0.000000 33.509146 47.791692 -29.082802 99.815518 15.101259 37.035353 29.737936 7.808791 25.758888 7.376466 8.548345 -61.925096 0.000000 0.000000 0.000000 0.000000 0.000000 0.000000 57.348498 52.342418 -15.015902 -149.763172 73.616033 40.238345 -10.909509 19.025301 -17.987184 -30.569002 21.664717 140.116757 0.000000 0.000000 0.000000 0.000000 0.000000 0.000000 7.864205 0.956383 11.626562 -7.992870 -0.595832 -1.652648 -7.708686 -34.636497 -23.423793 0.000000 0.000000 0.000000 8.951723 -2.919454 13.355108 -5.926559 0.436935 -1.591693 -9.662295 -28.915510 21.970335 0.000000 0.000000 0.000000
39.145299 69.133107 316.154695 -2.655869 1.789266 -10.933652 0.112540 -0.072474 10.895348 -0.223325 -0.048994 -0.118371 10.096892 2.123266 -1.661520 0.000000 0.000000 0.000000 33.488783 47.579437 -28.846797 99.225523 15.237454 36.012255 31.023582 5.604256 31.940118 8.665358 10.000792 -67.756855 0.000000 0.000000 0.000000 0.000000 0.000000 0.000000 57.414583 52.854446 -15.255496 -149.124337 74.688251 41.114973 -11.415978 16.658583 -23.382620 -29.036873 32.945572 64.756852 0.000000 0.000000 0.000000 0.000000 0.000000 0.000000 8.277623 0.976964 11.910307 -8.463246 -0.673310 -1.770155 -5.981354 -32.032954 -20.433167 0.000000 0.000000 0.000000 8.978187 -3.141196 13.588778 -5.687696 0.738128 -1.604867 -10.339594 -33.073368 23.555211 0.000000 0.000000 0.000000
39.169795 69.112227 316.085262 -2.717826 1.800225 -10.983459 0.089204 -0.062701 10.943623 -0.270509 -0.045730 -0.125914 10.494274 2.126243 -1.674109 0.000000 0.000000 0.000000 33.606990 47.337465 -28.677718 98.545585 14.788700 35.910524 29.747135 4.985698 32.491296 7.969751 10.788950 -62.170445 0.000000 0.000000 0.000000 0.000000 0.000000 0.000000 57.713128 53.292809 -15.549624 -148.109132 75.740511 41.398929 -10.051503 12.850652 -27.034991 -37.897809 22.236390 141.854298 0.000000 0.000000 0.000000 0.000000 0.000000 0.000000 8.555959 0.870268 12.053794 -8.331968 -0.720482 -1.739193 -3.960846 -27.254890 -15.372324 0.000000 0.000000 0.000000 8.946317 -3.489828 13.696483 -5.511652 1.337810 -1.705517 -9.869643 -29.059934 20.276129 0.000000 0.000000 0.000000
39.198196 69.208018 316.047729 -2.775764 1.797696 -11.007480 0.072300 -0.064116 10.965700 -0.311782 -0.043630 -0.132697 10.827704 2.134599 -1.679106 0.000000 0.000000 0.000000 33.918530 47.026162 -28.580681 97.508972 13.519867 36.779709 23.974915 6.333334 26.631032 8.082664 11.840707 -57.370497 0.000000 0.000000 0.000000 0.000000 0.000000 0.000000 57.934143 53.335466 -15.607476 -147.819111 76.084865 41.588636 -12.416327 12.645301 -31.284828 -36.659055 20.154911 151.822584 0.000000 0.000000 0.000000 0.000000 0.000000 0.000000 8.714774 0.815545 12.126383 -8.034119 -0.841314 -1.654565 -1.246656 -18.089359 -8.502353 0.000000 0.000000 0.000000 9.049128 -3.317197 13.696436 -5.528257 1.049374 -1.641371 -9.960841 -28.934778 20.208209 0.000000 0.000000 0.000000
39.222060 69.388794 316.023346 -2.842915 1.805292 -10.990242 0.079619 -0.072475 10.947445 -0.333442 -0.043980 -0.137241 11.075166 2.148871 -1.686096 0.000000 0.000000 0.000000 34.096705 46.696977 -28.418292 96.977119 12.792260 37.018847 20.065315 7.738854 22.916954 7.877602 10.982858 -50.973175 0.000000 0.000000 0.000000 0.000000 0.000000 0.000000 58.044459 53.124002 -15.490662 -148.279775 76.090289 42.213552 -15.750502 13.843807 -35.532901 -36.856747 14.791583 157.969421 0.000000 0.000000 0.000000 0.000000 0.000000 0.000000 8.806641 0.704094 12.150470 -7.921785 -0.717551 -1.646456 -0.697419 -15.503106 -6.925127 0.000000 0.000000 0.000000 9.164666 -3.237844 13.678879 -5.635299 1.076586 -1.675165 -10.096746 -31.690803 23.451555 0.000000 0.000000 0.000000
39.247864 69.464379 315.966046 -2.883635 1.825432 -10.996690 0.089494 -0.080378 10.953869 -0.333412 -0.076909 -0.139784 11.094595 2.169103 -1.684795 0.000000 0.000000 0.000000 34.343252 46.345010 -28.310589 96.075450 11.941342 37.202513 17.128883 9.426091 19.444884 9.027186 10.687847 -50.148917 0.000000 0.000000 0.000000 0.000000 0.000000 0.000000 57.838893 52.703598 -15.158875 -148.900095 75.751030 42.893682 -21.823737 15.198647 -44.854563 -34.127657 7.952988 173.024225 0.000000 0.000000 0.000000 0.000000 0.000000 0.000000 8.792028 0.750973 12.127212 -7.914158 -0.869735 -1.628575 -1.327539 -17.983175 -8.361438 0.000000 0.000000 0.000000 9.220397 -3.230003 13.687851 -5.707265 1.161654 -1.713605 -9.352182 -26.988819 21.722908 0.000000 0.000000 0.000000
39.272147 69.456626 315.899285 -2.907742 1.866838 -11.097250 0.109661 -0.085919 11.055896 -0.323180 -0.103203 -0.139978 11.035403 2.102068 -1.651697 0.000000 0.000000 0.000000 34.392847 45.863163 -28.037378 95.411875 11.606575 36.515725 15.533728 9.966950 18.709388 9.444612 11.287271 -50.959291 0.000000 0.000000 0.000000 0.000000 0.000000 0.000000 57.323350 52.400902 -14.771109 -148.671887 75.247170 42.603014 -36.055981 20.188276 -71.059389 -22.844175 -1.495796 -149.690952 0.000000 0.000000 0.000000 0.000000 0.000000 0.000000 8.722481 0.684099 12.218766 -8.078907 -0.767639 -1.691821 -4.209215 -27.247193 -14.643358 0.000000 0.000000 0.000000 9.242304 -3.245502 13.787085 -5.782554 1.238157 -1.749701 -9.338813 -28.836082 24.796424 0.000000 0.000000 0.000000
39.294022 69.329550 315.819112 -2.930134 1.916553 -11.270498 0.109831 -0.085713 11.230239 -0.300971 -0.124616 -0.139559 10.933011 2.006069 -1.608956 0.000000 0.000000 0.000000 34.549404 45.320340 -27.782142 95.057188 11.546109 35.609880 16.023633 10.344311 18.582426 8.428783 13.447215 -55.716185 0.000000 0.000000 0.000000 0.000000 0.000000 0.000000 57.237907 52.627671 -14.846296 -147.505487 75.189864 41.202967 -54.308407 28.578951 -126.782243 -14.685780 -4.243200 -89.254010 0.000000 0.000000 0.000000 0.000000 0.000000 0.000000 8.613338 0.516689 12.401783 -7.863768 -0.666675 -1.664252 -6.717832 -32.256135 -18.779485 0.000000 0.000000 0.000000 9.229264 -3.308671 13.958188 -5.778548 1.332121 -1.770458 -9.210918 -32.589289 30.381667 0.000000 0.000000 0.000000
